<?xml version="1.0" encoding="utf-8"?>
<svg xmlns="http://www.w3.org/2000/svg" version="1.0" preserveAspectRatio="xMidYMid meet" viewBox="249.6 252 300.39 96.4">
  <g transform="translate(0.000000,600.000000) scale(0.100000,-0.100000)" fill="#ffffff" stroke="none">
    <path d="M 2950 3455 C 2930 3434 2914.689 3421.982 2866.068 3428.068 C 2812.034 3434.831 2810 3429 2820 3411 C 2847 3359 2837 3343 2663 3168 L 2496 3000 L 2583 2912 C 2669 2825 2670 2824 2660 2790 C 2644 2734 2648 2668 2670 2633 C 2696 2590 2738 2570 2805 2570 C 2857 2570 2860 2571 2850 2589 C 2845 2600 2840 2619 2840 2632 C 2840 2651 2851 2644 2910 2585 L 2980 2516 L 3008 2543 C 3032 2566 3045 2570 3093 2570 C 3185 2570 3259 2612 3297 2684 L 3313 2714 L 3279 2685 C 3240 2653 3183 2627 3170 2635 C 3164 2639 3160 2653 3160 2668 C 3160 2689 3192 2727 3312 2847 L 3465 3000 L 3225 3240 C 3093 3372 2983 3480 2979 3480 C 2976 3480 2963 3469 2950 3455 Z M 3110 3264 C 3162 3211 3195 3173 3183 3179 C 3136 3203 3059 3185 3010 3138 C 2989 3118 2979 3112 2983 3123 C 3009 3194 3022 3259 3018 3306 C 3015 3336 3014 3360 3014 3360 C 3015 3360 3058 3317 3110 3264 Z M 2739 3049 C 2717 2976 2695 2912 2691 2908 C 2687 2903 2662 2923 2635 2950 L 2586 3000 L 2680 3095 C 2732 3147 2775 3188 2777 3187 C 2778 3185 2761 3123 2739 3049 Z M 3288 2913 L 3202 2827 L 3220 2893 C 3249 2998 3254 3059 3236 3109 L 3221 3154 L 3298 3077 L 3375 3000 L 3288 2913 Z M 3040 3090 C 3049 3074 3043 3042 3010 2934 C 2953 2744 2946 2702 2964 2649 L 2979 2606 L 2920 2666 L 2860 2725 L 2916 2898 C 2979 3095 3011 3144 3040 3090 Z" style="fill: rgb(29, 185, 84);"/>
    <path d="M3715 3161 c-133 -33 -216 -158 -202 -307 10 -109 55 -180 142 -227 57 -31 219 -31 287 0 59 27 85 64 70 98 -14 31 -43 32 -108 3 -61 -26 -151 -29 -188 -5 -34 23 -56 57 -63 101 l-6 36 184 2 184 3 3 43 c12 168 -137 293 -303 253z m126 -107 c31 -15 59 -66 59 -104 0 -19 -6 -20 -125 -20 -138 0 -138 0 -111 65 28 65 112 93 177 59z" style=""/>
    <path d="M4375 3165 c-5 -2 -22 -6 -38 -9 -15 -4 -45 -23 -67 -42 l-40 -36 0 29 c0 39 -16 53 -60 53 -69 0 -70 -6 -70 -278 0 -229 1 -243 20 -262 38 -38 103 -19 115 33 2 12 6 93 7 179 l3 157 29 30 c55 57 135 50 161 -14 11 -25 15 -78 15 -204 0 -164 1 -170 22 -185 31 -22 71 -20 94 5 17 18 20 42 24 194 l5 174 29 30 c56 59 140 49 163 -19 7 -21 12 -100 12 -202 1 -161 2 -167 23 -182 31 -22 71 -20 94 5 17 19 19 38 18 213 0 172 -2 196 -21 238 -12 25 -33 54 -47 63 -76 50 -191 38 -258 -26 -23 -21 -42 -38 -43 -37 -19 36 -41 60 -63 72 -28 14 -109 28 -127 21z" style=""/>
    <path d="M5189 3160 c-118 -21 -178 -74 -144 -126 19 -30 22 -30 107 1 139 50 218 21 218 -80 0 -21 -5 -22 -102 -28 -125 -8 -169 -20 -210 -56 -26 -23 -32 -37 -36 -83 -8 -106 59 -179 173 -186 68 -5 110 11 151 55 23 25 24 25 24 4 0 -29 34 -61 65 -61 14 0 34 9 46 21 20 20 21 29 17 217 -3 159 -6 203 -20 227 -21 39 -56 71 -90 84 -40 15 -146 21 -199 11z m181 -325 c0 -35 -23 -86 -48 -109 -32 -28 -107 -33 -133 -10 -29 26 -40 59 -30 87 14 35 65 52 169 56 39 1 42 -1 42 -24z" style=""/>
  </g>
</svg>