<?xml version="1.0" encoding="utf-8"?>
<!-- Svg Vector Icons : http://www.onlinewebfonts.com/icon -->
<!DOCTYPE svg PUBLIC "-//W3C//DTD SVG 1.1//EN" "http://www.w3.org/Graphics/SVG/1.1/DTD/svg11.dtd">
<svg version="1.1" xmlns="http://www.w3.org/2000/svg" xmlns:xlink="http://www.w3.org/1999/xlink" x="0px" y="0px" viewBox="0 0 256 256" enable-background="new 0 0 256 256" xml:space="preserve">
<metadata> Svg Vector Icons : http://www.onlinewebfonts.com/icon </metadata>
<g><g><path fill="#000000" d="M98,177.9l79.9-49.9L98,78.1V177.9z M215.5,108H246c-8.4-50.1-47.9-89.7-98-98.1v30.7C181.5,48.3,207.9,74.5,215.5,108z M40.5,148H10c8.4,50.1,47.9,89.7,98,98.1v-30.7C74.5,207.7,48.1,181.5,40.5,148z M108,40.7V9.9c-50.1,8.4-89.6,48-98,98.1h30.5C48.1,74.5,74.5,48.3,108,40.7z M148,215.3v30.7c50.1-8.4,89.6-48,98-98.1h-30.5C207.9,181.5,181.5,207.7,148,215.3z"/></g></g>
</svg>