<?xml version="1.0" standalone="no"?>
<!DOCTYPE svg PUBLIC "-//W3C//DTD SVG 20010904//EN"
 "http://www.w3.org/TR/2001/REC-SVG-20010904/DTD/svg10.dtd">
<svg version="1.0" xmlns="http://www.w3.org/2000/svg"
 width="800.000000pt" height="600.000000pt" viewBox="0 0 800.000000 600.000000"
 preserveAspectRatio="xMidYMid meet">

<g transform="translate(0.000000,600.000000) scale(0.100000,-0.100000)"
fill="#000000" stroke="none">
<path d="M2731 3468 c-94 -27 -181 -112 -215 -211 -23 -68 -23 -429 0 -508 25
-85 82 -151 169 -198 49 -26 53 -26 280 -29 218 -3 234 -2 290 19 80 30 154
104 183 182 20 53 22 77 22 277 0 262 -9 297 -93 384 -86 87 -123 96 -385 95
-119 0 -232 -5 -251 -11z m547 -53 c64 -35 97 -71 130 -144 24 -51 25 -61 24
-271 0 -211 -1 -220 -25 -273 -28 -62 -80 -117 -140 -149 -40 -22 -56 -23
-276 -26 l-234 -3 -63 31 c-63 31 -103 71 -140 140 -17 31 -19 62 -22 256 -2
135 1 237 7 261 15 56 67 130 112 160 75 50 97 53 344 50 l230 -2 53 -30z"/>
<path d="M2864 3292 c5 -22 -10 -86 -60 -248 -41 -134 -67 -236 -66 -263 0
-60 33 -92 99 -98 l49 -5 -4 38 c-4 50 78 318 106 347 21 20 42 16 42 -9 0 -8
-16 -69 -36 -135 -51 -168 -38 -224 53 -236 53 -7 105 11 143 49 41 41 38 53
-6 23 -40 -27 -74 -33 -74 -12 0 6 14 59 30 117 51 178 49 235 -11 269 -33 18
-89 8 -123 -24 l-26 -24 6 27 c4 15 11 35 15 44 5 9 9 37 9 62 0 66 -30 97
-99 104 l-53 5 6 -31z"/>
<path d="M3713 3161 c-133 -34 -215 -163 -199 -314 20 -197 199 -295 405 -224
79 27 111 62 93 102 -14 31 -43 32 -108 3 -61 -26 -151 -29 -188 -5 -34 23
-56 57 -63 101 l-6 36 184 2 184 3 3 39 c8 95 -46 199 -122 236 -50 24 -134
33 -183 21z m127 -106 c33 -17 60 -61 60 -100 l0 -25 -125 0 c-138 0 -138 0
-111 65 27 65 112 93 176 60z"/>
<path d="M4375 3165 c-5 -2 -22 -6 -38 -9 -15 -4 -45 -23 -67 -42 l-40 -36 0
29 c0 39 -16 53 -60 53 -69 0 -70 -6 -70 -278 0 -229 1 -243 20 -262 26 -26
72 -26 96 1 17 18 20 42 24 195 l5 174 33 32 c27 27 40 33 77 33 33 0 50 -6
67 -23 22 -22 23 -30 26 -212 3 -181 5 -191 25 -205 30 -21 71 -19 93 6 17 18
20 42 24 194 l5 174 29 30 c55 57 135 50 161 -14 11 -25 15 -78 15 -204 0
-164 1 -170 22 -185 31 -22 71 -20 94 5 17 19 19 38 19 213 -1 179 -2 194 -24
239 -26 54 -52 75 -112 88 -68 16 -142 -5 -191 -52 -23 -21 -42 -38 -43 -37
-19 36 -41 60 -63 72 -28 14 -109 28 -127 21z"/>
<path d="M5172 3155 c-106 -24 -150 -61 -131 -113 13 -34 31 -36 109 -8 77 28
155 33 182 12 20 -15 38 -58 38 -90 0 -22 -4 -23 -97 -29 -183 -12 -243 -45
-251 -140 -9 -110 70 -187 192 -187 54 0 103 23 137 63 l18 22 1 -22 c0 -31
34 -63 65 -63 14 0 34 9 45 20 18 18 20 33 20 193 0 236 -15 285 -106 330 -46
23 -148 29 -222 12z m198 -320 c0 -73 -57 -135 -124 -135 -49 1 -72 16 -87 59
-15 44 8 78 58 86 21 4 43 8 48 10 6 2 31 4 58 4 44 1 47 -1 47 -24z"/>
</g>
</svg>
