<?xml version="1.0" standalone="no"?>
<!DOCTYPE svg PUBLIC "-//W3C//DTD SVG 20010904//EN"
 "http://www.w3.org/TR/2001/REC-SVG-20010904/DTD/svg10.dtd">
<svg version="1.0" xmlns="http://www.w3.org/2000/svg"
 width="800.000000pt" height="600.000000pt" viewBox="0 0 800.000000 600.000000"
 preserveAspectRatio="xMidYMid meet">

<g transform="translate(0.000000,600.000000) scale(0.100000,-0.100000)"
fill="#000000" stroke="none">
<path d="M2880 3454 c6 -14 10 -35 10 -47 0 -12 -45 -170 -100 -350 -109 -356
-117 -404 -80 -465 26 -43 90 -71 158 -72 51 0 52 1 41 22 -18 33 -5 96 64
316 68 215 89 257 128 257 39 0 35 -39 -20 -222 -56 -183 -63 -246 -33 -302
10 -19 34 -43 53 -53 90 -48 255 8 305 103 20 40 18 41 -18 8 -18 -16 -52 -37
-76 -46 -66 -25 -71 -13 -37 109 15 57 39 141 52 188 27 99 29 183 7 239 -34
87 -150 94 -241 16 l-41 -35 15 48 c8 26 19 60 24 77 16 52 11 127 -11 163
-26 43 -90 71 -157 72 -52 0 -52 0 -43 -26z"/>
<path d="M3673 3410 c-47 -19 -71 -98 -44 -149 13 -24 61 -51 91 -51 29 0 77
27 90 49 5 11 10 36 10 56 0 47 -13 71 -50 90 -32 17 -64 18 -97 5z"/>
<path d="M4210 3130 c-34 -36 -40 -37 -40 -5 0 24 -2 25 -70 25 l-70 0 0 -280
0 -281 68 3 67 3 3 204 c3 213 6 231 46 231 43 0 46 -13 46 -232 l0 -208 70 0
70 0 0 208 c0 219 3 232 46 232 40 0 43 -18 46 -231 l3 -204 68 -3 67 -3 0
241 c0 258 -4 280 -52 314 -13 9 -43 16 -71 16 -41 0 -53 -5 -79 -30 -16 -16
-34 -30 -39 -30 -6 0 -22 14 -36 30 -21 25 -32 30 -70 30 -37 0 -50 -5 -73
-30z"/>
<path d="M4860 3144 c-153 -66 -201 -320 -90 -473 79 -109 267 -121 327 -21
20 34 36 34 41 1 5 -32 43 -52 112 -58 l60 -6 0 71 c0 66 -2 71 -22 74 -23 3
-23 4 -26 211 l-2 207 -70 0 -70 0 0 -35 c0 -42 -11 -45 -35 -9 -33 51 -149
71 -225 38z m190 -127 c45 -23 70 -73 70 -141 0 -75 -23 -124 -71 -148 -42
-22 -81 -23 -124 -2 -47 22 -67 57 -72 128 -7 76 13 128 59 156 37 23 101 26
138 7z"/>
<path d="M3480 3085 l0 -65 85 0 85 0 0 -145 0 -144 -92 -3 -93 -3 0 -65 0
-65 243 -3 242 -2 0 70 0 70 -80 0 -80 0 0 210 0 210 -155 0 -155 0 0 -65z"/>
</g>
</svg>
