<?xml version="1.0" standalone="no"?>
<!DOCTYPE svg PUBLIC "-//W3C//DTD SVG 20010904//EN"
 "http://www.w3.org/TR/2001/REC-SVG-20010904/DTD/svg10.dtd">
<svg version="1.0" xmlns="http://www.w3.org/2000/svg"
 width="800.000000pt" height="600.000000pt" viewBox="0 0 800.000000 600.000000"
 preserveAspectRatio="xMidYMid meet">

<g transform="translate(0.000000,600.000000) scale(0.100000,-0.100000)"
fill="#000000" stroke="none">
<path d="M2809 3462 c6 -11 11 -34 11 -50 0 -17 -43 -171 -96 -344 -104 -341
-117 -410 -87 -468 24 -47 90 -80 160 -80 l52 0 -11 30 c-13 40 -10 55 64 299
67 220 89 266 128 266 40 0 36 -42 -20 -229 -28 -93 -50 -188 -50 -213 0 -63
25 -110 71 -133 95 -49 255 5 305 101 20 39 18 42 -10 14 -27 -27 -98 -65
-121 -65 -9 0 -18 7 -21 14 -3 8 16 88 42 178 55 193 67 302 39 362 -39 82
-143 88 -237 14 -21 -16 -38 -25 -38 -21 0 4 9 37 20 71 38 122 20 211 -52
248 -17 9 -61 19 -96 22 -63 5 -64 4 -53 -16z"/>
<path d="M3572 3152 c-136 -49 -207 -208 -163 -368 39 -145 205 -218 378 -166
76 24 117 57 111 93 -6 42 -29 45 -118 15 -96 -32 -154 -28 -200 11 -26 21
-50 74 -50 110 0 9 46 13 183 15 l182 3 3 47 c12 179 -155 301 -326 240z m175
-114 c14 -14 29 -44 33 -67 l7 -41 -128 0 c-78 0 -129 4 -129 10 0 30 37 95
64 112 44 27 118 20 153 -14z"/>
<path d="M4233 3159 c-25 -6 -58 -24 -77 -43 l-35 -32 -6 25 c-10 40 -24 51
-66 51 -66 0 -69 -11 -69 -276 0 -219 1 -233 21 -258 25 -32 70 -35 99 -6 18
18 20 33 20 174 0 160 6 195 42 233 43 46 133 38 157 -13 7 -16 11 -91 11
-199 0 -162 2 -177 20 -195 38 -38 103 -19 115 33 2 12 6 93 7 179 l3 158 31
31 c44 43 100 50 140 16 l29 -25 5 -192 c5 -175 7 -193 24 -206 32 -23 72 -17
96 14 21 26 22 34 18 217 -3 180 -4 192 -28 234 -34 62 -77 85 -156 84 -49 0
-73 -6 -108 -27 -25 -15 -50 -35 -56 -46 -14 -27 -22 -25 -42 9 -30 53 -114
78 -195 60z"/>
<path d="M5080 3161 c-54 -10 -118 -36 -142 -58 -22 -20 -23 -66 -3 -83 13
-11 29 -9 93 14 144 49 222 27 222 -64 l0 -40 -52 0 c-152 -1 -259 -37 -284
-95 -49 -117 41 -234 180 -235 54 0 128 35 140 67 5 13 10 10 24 -18 22 -44
61 -59 96 -35 l26 16 0 183 c0 100 -5 199 -10 219 -14 48 -54 95 -96 113 -44
18 -137 26 -194 16z m170 -332 c0 -76 -53 -129 -128 -129 -85 0 -121 108 -45
138 35 14 66 19 126 21 46 1 47 1 47 -30z"/>
</g>
</svg>
