<?xml version="1.0" standalone="no"?>
<!DOCTYPE svg PUBLIC "-//W3C//DTD SVG 20010904//EN"
 "http://www.w3.org/TR/2001/REC-SVG-20010904/DTD/svg10.dtd">
<svg version="1.0" xmlns="http://www.w3.org/2000/svg"
 width="800.000000pt" height="600.000000pt" viewBox="0 0 800.000000 600.000000"
 preserveAspectRatio="xMidYMid meet">

<g transform="translate(0.000000,600.000000) scale(0.100000,-0.100000)"
fill="#000000" stroke="none">
<path d="M2203 3612 c9 -36 1 -69 -91 -374 -113 -371 -121 -417 -79 -479 31
-46 80 -69 149 -69 l57 0 -11 30 c-13 40 -10 55 64 299 64 211 89 264 125 269
41 6 38 -36 -16 -219 -58 -194 -64 -262 -31 -317 28 -46 80 -66 155 -59 90 7
166 52 201 119 22 42 17 43 -25 5 -45 -41 -107 -65 -124 -48 -8 8 2 56 37 178
58 200 69 301 40 364 -19 44 -57 69 -101 69 -49 0 -102 -20 -138 -52 -41 -35
-41 -33 -15 50 53 169 -6 271 -156 272 l-51 0 10 -38z"/>
<path d="M4167 3552 c-15 -17 -17 -58 -17 -384 0 -341 1 -366 18 -381 26 -24
75 -21 98 4 18 20 19 43 22 373 3 345 2 353 -18 379 -26 33 -78 37 -103 9z"/>
<path d="M4382 3554 l-22 -15 0 -369 0 -369 22 -15 c24 -17 65 -21 84 -8 31
20 34 54 34 399 0 338 -1 350 -20 371 -24 26 -66 29 -98 6z"/>
<path d="M3223 3330 c-132 -27 -202 -141 -143 -237 24 -41 61 -59 174 -90 106
-28 135 -49 118 -87 -23 -51 -122 -58 -221 -15 -55 23 -89 22 -105 -3 -19 -31
4 -69 59 -97 44 -23 61 -26 160 -26 96 0 116 3 153 23 55 29 82 73 82 134 0
94 -32 123 -180 162 -100 27 -130 46 -130 82 0 57 104 73 192 28 59 -30 95
-26 104 11 19 76 -131 141 -263 115z"/>
<path d="M3765 3330 c-101 -15 -165 -55 -165 -100 0 -52 22 -57 113 -27 105
35 159 36 192 2 18 -18 25 -35 25 -65 l0 -40 -52 0 c-133 -1 -248 -34 -275
-79 -33 -54 -22 -142 25 -195 65 -73 223 -74 280 -1 14 18 22 22 22 13 0 -29
40 -68 69 -68 57 0 61 17 61 232 0 184 -1 197 -23 239 -40 74 -146 109 -272
89z m165 -335 c0 -74 -51 -125 -125 -125 -69 0 -112 82 -66 124 19 18 86 33
154 35 36 1 37 0 37 -34z"/>
<path d="M4775 3331 c-44 -11 -107 -46 -131 -73 -50 -54 -68 -108 -69 -203 0
-132 39 -205 140 -259 58 -31 219 -31 287 1 60 27 82 60 68 98 -9 24 -14 26
-43 22 -17 -3 -59 -15 -92 -27 -69 -25 -128 -21 -171 12 -28 23 -54 74 -54
108 0 19 6 20 180 20 l180 0 6 26 c18 71 -31 194 -95 238 -56 39 -138 53 -206
37z m119 -105 c34 -14 66 -65 66 -105 0 -20 -5 -21 -126 -21 l-126 0 6 32 c9
46 33 77 69 93 41 18 70 18 111 1z"/>
<path d="M5415 3331 c-40 -10 -66 -25 -89 -50 -25 -27 -36 -27 -36 2 0 33 -18
47 -60 47 -69 0 -70 -5 -70 -283 0 -243 0 -246 22 -261 45 -32 102 -13 113 37
2 12 6 93 7 179 l3 158 33 32 c27 27 40 33 77 33 82 0 94 -35 95 -267 0 -151
1 -157 22 -172 30 -21 71 -20 91 2 14 15 17 42 17 153 1 170 9 213 49 253 26
25 39 31 76 31 82 0 94 -35 95 -266 0 -138 2 -158 18 -172 25 -23 75 -21 96 2
16 17 17 41 14 228 -3 187 -5 211 -23 241 -57 95 -208 106 -297 21 -43 -40
-44 -40 -68 2 -21 36 -126 65 -185 50z"/>
<path d="M2845 2932 c-67 -13 -83 -105 -26 -149 46 -36 124 6 124 66 0 58 -42
94 -98 83z"/>
<path d="M3527 2543 c-4 -3 -7 -48 -7 -100 l0 -93 50 0 50 0 0 45 c0 43 1 45
30 45 29 0 30 -2 30 -45 l0 -45 50 0 50 0 0 101 0 100 -47 -3 -48 -3 -3 -42
c-3 -40 -5 -43 -33 -43 -28 0 -29 2 -29 45 l0 45 -43 0 c-24 0 -47 -3 -50 -7z"/>
<path d="M3820 2450 l0 -100 45 0 45 0 0 100 0 100 -45 0 -45 0 0 -100z"/>
<path d="M3950 2450 c0 -60 4 -100 10 -100 6 0 10 26 11 58 l1 57 26 -58 c16
-37 31 -57 40 -55 8 2 26 32 41 68 l26 65 3 -67 3 -68 45 0 45 0 -3 98 -3 97
-43 3 c-41 3 -43 2 -61 -40 l-18 -43 -22 43 c-20 39 -24 42 -61 42 l-40 0 0
-100z"/>
<path d="M4295 2516 c-41 -97 -63 -166 -54 -166 6 0 16 14 22 30 10 25 17 30
45 30 28 0 36 -5 45 -30 11 -28 15 -30 64 -30 29 0 53 2 53 5 0 9 -73 171 -82
183 -6 6 -26 12 -45 12 -29 0 -36 -5 -48 -34z m24 -63 c11 -21 9 -23 -13 -23
-24 0 -25 2 -14 25 6 14 12 24 13 23 1 -2 8 -13 14 -25z"/>
<path d="M2122 2448 c6 -17 1326 -19 1331 -3 1 7 -227 11 -666 13 -534 2 -668
0 -665 -10z"/>
<path d="M4545 2450 c-3 -6 0 -12 7 -15 7 -3 307 -4 667 -3 513 2 655 6 659
16 5 16 -1323 18 -1333 2z"/>
</g>
</svg>
