<?xml version="1.0" standalone="no"?>
<!DOCTYPE svg PUBLIC "-//W3C//DTD SVG 20010904//EN"
 "http://www.w3.org/TR/2001/REC-SVG-20010904/DTD/svg10.dtd">
<svg version="1.0" xmlns="http://www.w3.org/2000/svg"
 width="800.000000pt" height="600.000000pt" viewBox="0 0 800.000000 600.000000"
 preserveAspectRatio="xMidYMid meet">

<g transform="translate(0.000000,600.000000) scale(0.100000,-0.100000)"
fill="#ffffff" stroke="none">
<path d="M2950 3455 c-20 -21 -33 -25 -82 -25 -55 0 -58 -1 -48 -19 27 -52 17
-68 -157 -243 l-167 -168 87 -88 c86 -87 87 -88 77 -122 -16 -56 -12 -122 10
-157 26 -43 68 -63 135 -63 52 0 55 1 45 19 -5 11 -10 30 -10 43 0 19 11 12
70 -47 l70 -69 28 27 c24 23 37 27 85 27 92 0 166 42 204 114 l16 30 -34 -29
c-39 -32 -96 -58 -109 -50 -6 4 -10 18 -10 33 0 21 32 59 152 179 l153 153
-240 240 c-132 132 -242 240 -246 240 -3 0 -16 -11 -29 -25z m160 -191 c52
-53 85 -91 73 -85 -47 24 -124 6 -173 -41 -21 -20 -31 -26 -27 -15 26 71 39
136 35 183 -3 30 -4 54 -4 54 1 0 44 -43 96 -96z m-371 -215 c-22 -73 -44
-137 -48 -141 -4 -5 -29 15 -56 42 l-49 50 94 95 c52 52 95 93 97 92 1 -2 -16
-64 -38 -138z m549 -136 l-86 -86 18 66 c29 105 34 166 16 216 l-15 45 77 -77
77 -77 -87 -87z m-248 177 c9 -16 3 -48 -30 -156 -57 -190 -64 -232 -46 -285
l15 -43 -59 60 -60 59 56 173 c63 197 95 246 124 192z"/>
<path d="M3715 3161 c-133 -33 -216 -158 -202 -307 10 -109 55 -180 142 -227
57 -31 219 -31 287 0 59 27 85 64 70 98 -14 31 -43 32 -108 3 -61 -26 -151
-29 -188 -5 -34 23 -56 57 -63 101 l-6 36 184 2 184 3 3 43 c12 168 -137 293
-303 253z m126 -107 c31 -15 59 -66 59 -104 0 -19 -6 -20 -125 -20 -138 0
-138 0 -111 65 28 65 112 93 177 59z"/>
<path d="M4375 3165 c-5 -2 -22 -6 -38 -9 -15 -4 -45 -23 -67 -42 l-40 -36 0
29 c0 39 -16 53 -60 53 -69 0 -70 -6 -70 -278 0 -229 1 -243 20 -262 38 -38
103 -19 115 33 2 12 6 93 7 179 l3 157 29 30 c55 57 135 50 161 -14 11 -25 15
-78 15 -204 0 -164 1 -170 22 -185 31 -22 71 -20 94 5 17 18 20 42 24 194 l5
174 29 30 c56 59 140 49 163 -19 7 -21 12 -100 12 -202 1 -161 2 -167 23 -182
31 -22 71 -20 94 5 17 19 19 38 18 213 0 172 -2 196 -21 238 -12 25 -33 54
-47 63 -76 50 -191 38 -258 -26 -23 -21 -42 -38 -43 -37 -19 36 -41 60 -63 72
-28 14 -109 28 -127 21z"/>
<path d="M5189 3160 c-118 -21 -178 -74 -144 -126 19 -30 22 -30 107 1 139 50
218 21 218 -80 0 -21 -5 -22 -102 -28 -125 -8 -169 -20 -210 -56 -26 -23 -32
-37 -36 -83 -8 -106 59 -179 173 -186 68 -5 110 11 151 55 23 25 24 25 24 4 0
-29 34 -61 65 -61 14 0 34 9 46 21 20 20 21 29 17 217 -3 159 -6 203 -20 227
-21 39 -56 71 -90 84 -40 15 -146 21 -199 11z m181 -325 c0 -35 -23 -86 -48
-109 -32 -28 -107 -33 -133 -10 -29 26 -40 59 -30 87 14 35 65 52 169 56 39 1
42 -1 42 -24z"/>
</g>
</svg>
